<?xml version="1.0" encoding="UTF-8" standalone="no"?>
<!-- Created with Inkscape (http://www.inkscape.org/) -->

<svg
   xmlns:dc="http://purl.org/dc/elements/1.1/"
   xmlns:cc="http://creativecommons.org/ns#"
   xmlns:rdf="http://www.w3.org/1999/02/22-rdf-syntax-ns#"
   xmlns:svg="http://www.w3.org/2000/svg"
   xmlns="http://www.w3.org/2000/svg"
   xmlns:sodipodi="http://sodipodi.sourceforge.net/DTD/sodipodi-0.dtd"
   xmlns:inkscape="http://www.inkscape.org/namespaces/inkscape"
   width="600"
   height="200"
   viewBox="0 0 158.74999 52.916668"
   version="1.1"
   id="svg913"
   inkscape:version="0.92.3 (2405546, 2018-03-11)"
   sodipodi:docname="name.svg">
  <defs
     id="defs907" />
  <sodipodi:namedview
     id="base"
     pagecolor="#ffffff"
     bordercolor="#666666"
     borderopacity="1.0"
     inkscape:pageopacity="0.0"
     inkscape:pageshadow="2"
     inkscape:zoom="1.4"
     inkscape:cx="353.71104"
     inkscape:cy="419.89002"
     inkscape:document-units="mm"
     inkscape:current-layer="text895"
     showgrid="false"
     units="px"
     inkscape:window-width="3840"
     inkscape:window-height="2035"
     inkscape:window-x="-13"
     inkscape:window-y="-13"
     inkscape:window-maximized="1" />
  <metadata
     id="metadata910">
    <rdf:RDF>
      <cc:Work
         rdf:about="">
        <dc:format>image/svg+xml</dc:format>
        <dc:type
           rdf:resource="http://purl.org/dc/dcmitype/StillImage" />
        <dc:title />
      </cc:Work>
    </rdf:RDF>
  </metadata>
  <g
     inkscape:label="Layer 1"
     inkscape:groupmode="layer"
     id="layer1"
     transform="translate(0,-244.08332)">
    <g
       aria-label="Xuefei Shi"
       style="font-style:normal;font-variant:normal;font-weight:normal;font-stretch:normal;font-size:45.00807571px;line-height:125%;font-family:'Kunstler Script';-inkscape-font-specification:'Kunstler Script';text-align:center;letter-spacing:1.9315964px;word-spacing:0px;text-anchor:middle;fill:#000000;fill-opacity:1;stroke:none;stroke-width:0.93766826px;stroke-linecap:butt;stroke-linejoin:miter;stroke-opacity:1"
       id="text895">
      <path
         d="m 18.308911,276.05516 c -2.340427,-3.42063 -4.320788,-7.1113 -5.986092,-10.66695 4.54583,-10.26187 5.986092,-18.0933 5.986092,-18.45336 0,-0.72013 -1.26023,-1.21522 -2.25041,-1.21522 -0.225041,0 -1.080197,0 -1.080197,0.36006 0,0.045 0,0.09 0.04501,0.13503 -1.080197,5.13093 -2.745501,10.30688 -4.590837,14.8077 -3.1505749,-7.78642 -4.5458294,-13.99756 -4.5458294,-14.13258 0,-0.49509 0.3150574,-0.63012 0.3150574,-0.76514 0,-0.27005 -0.5400985,-0.40507 -0.9451723,-0.40507 -1.0351889,0 -2.8355172,0.72013 -2.8355172,1.71031 0,0.63011 1.8453365,8.64157 6.0761082,18.13831 -2.8805254,6.25614 -5.6710343,10.53192 -6.6162067,10.53192 -0.3150575,0 -0.4050739,0.09 -0.4050739,0.22504 0,0.49509 1.305238,2.16039 2.8805254,2.16039 0.9451724,0 1.305238,-0.40507 1.6653037,-0.99018 1.6653037,-2.65548 3.1055664,-5.31097 4.3657968,-7.87644 1.395254,2.74551 2.970541,5.58102 4.725861,8.32652 0.225042,0.36007 0.495091,0.5401 0.945173,0.5401 0.855156,0 2.655484,-1.48527 2.655484,-1.98036 0,-0.27005 -0.135024,-0.31506 -0.405074,-0.45008 z"
         style="font-style:normal;font-variant:normal;font-weight:normal;font-stretch:normal;font-size:45.00820923px;font-family:'Grand Hotel';-inkscape-font-specification:'Grand Hotel, Normal';font-variant-ligatures:normal;font-variant-caps:normal;font-variant-numeric:normal;font-feature-settings:normal;text-align:center;writing-mode:lr-tb;text-anchor:middle;stroke-width:0.93766826px"
         id="path822" />
      <path
         d="m 35.029222,278.4856 c 3.870706,0 5.626026,-4.05074 6.436174,-7.02128 0.04501,-0.18003 0.04501,-0.27005 0.04501,-0.31506 0,-0.85515 -0.855156,-1.84533 -1.575287,-1.84533 -0.450083,0 -0.900165,0.40507 -1.080197,1.35024 -0.405074,1.98036 -1.215222,4.86089 -3.01555,4.86089 -1.170214,0 -1.170214,-1.6653 -1.170214,-2.07038 V 262.0126 c 0,-1.0802 -0.945172,-1.98036 -2.430443,-1.98036 -0.630115,0 -1.440263,0.18003 -1.440263,0.49509 0,0.31505 0.450082,0.40507 0.450082,1.71031 v 7.24632 c -0.540098,3.15057 -1.890345,6.07611 -3.690673,6.07611 -1.305238,0 -2.070378,-1.30524 -2.070378,-3.73568 0,-3.78069 0.495091,-5.76105 1.305238,-9.09166 0.180033,-0.67512 1.485271,-2.47545 -0.720131,-2.47545 -2.385435,0 -2.070378,0.90016 -2.385435,1.6653 0,0 -1.620296,5.35598 -1.620296,10.12685 0,3.91571 1.755321,6.48118 4.770871,6.48118 1.980361,0 3.420624,-1.35025 4.500821,-3.24059 0.315057,1.80033 1.665303,3.19558 3.690673,3.19558 z"
         style="font-style:normal;font-variant:normal;font-weight:normal;font-stretch:normal;font-size:45.00820923px;font-family:'Grand Hotel';-inkscape-font-specification:'Grand Hotel, Normal';font-variant-ligatures:normal;font-variant-caps:normal;font-variant-numeric:normal;font-feature-settings:normal;text-align:center;writing-mode:lr-tb;text-anchor:middle;stroke-width:0.93766826px"
         id="path824" />
      <path
         d="m 51.286088,264.12798 c 0,-2.70049 -1.530279,-4.54583 -4.050738,-4.54583 -3.465633,0 -6.886256,4.27578 -6.886256,9.99183 0,5.62602 3.870706,8.91162 7.966453,8.91162 6.616206,0 8.416535,-5.44599 8.731592,-8.19149 0.180033,-1.57529 -2.340427,-2.47545 -2.745501,-0.45008 -0.540098,2.7455 -1.980361,5.67103 -5.491001,5.67103 -2.340427,0 -3.555649,-1.26023 -4.185764,-2.79051 4.365797,-1.30524 6.661215,-5.26596 6.661215,-8.59657 z m -7.246321,5.31097 c -0.09002,-1.89034 0.585106,-6.84125 2.790509,-6.84125 0.585106,0 0.945172,0.58511 0.945172,1.57529 0,2.70049 -1.440263,5.04092 -3.690673,6.07611 0,-0.27005 -0.04501,-0.5401 -0.04501,-0.81015 z"
         style="font-style:normal;font-variant:normal;font-weight:normal;font-stretch:normal;font-size:45.00820923px;font-family:'Grand Hotel';-inkscape-font-specification:'Grand Hotel, Normal';font-variant-ligatures:normal;font-variant-caps:normal;font-variant-numeric:normal;font-feature-settings:normal;text-align:center;writing-mode:lr-tb;text-anchor:middle;stroke-width:0.93766826px"
         id="path826" />
      <path
         d="m 64.824176,264.35302 c 1.215221,0.09 1.125205,0.5401 1.395254,0.5401 0.585107,0 0.855156,-2.2054 0.855156,-2.83551 0,-0.94518 -0.855156,-1.26023 -1.845336,-1.26023 -1.215222,0 -3.510641,0.13502 -5.581018,0.31505 v -12.73732 c 0,-1.0802 -0.945173,-1.98036 -2.430444,-1.98036 -0.630115,0 -1.440262,0.18003 -1.440262,0.49509 0,0.31506 0.450082,0.40507 0.450082,1.71031 v 12.78233 c -0.27005,0 -0.495091,0.045 -0.630115,0.045 -0.720132,0.09 -1.035189,0.63012 -1.035189,1.0802 0,0.72013 0.675123,1.26023 1.395254,1.98036 0.09002,0.09 0.180033,0.22504 0.27005,0.31506 v 24.21441 c 0,3.33061 0.99018,6.75123 4.140755,6.75123 3.600657,0 5.986092,-5.44599 5.986092,-12.96236 0,-7.42635 -2.610476,-12.78233 -6.706223,-17.77824 v -0.99018 z m -1.890345,18.45337 c 0,5.71604 -0.900164,9.67677 -2.205402,9.67677 -0.900165,0 -1.080197,-2.02537 -1.080197,-3.46564 v -19.26351 c 2.160394,4.18576 3.285599,8.95663 3.285599,13.05238 z"
         style="font-style:normal;font-variant:normal;font-weight:normal;font-stretch:normal;font-size:45.00820923px;font-family:'Grand Hotel';-inkscape-font-specification:'Grand Hotel, Normal';font-variant-ligatures:normal;font-variant-caps:normal;font-variant-numeric:normal;font-feature-settings:normal;text-align:center;writing-mode:lr-tb;text-anchor:middle;stroke-width:0.93766826px"
         id="path828" />
      <path
         d="m 80.554307,264.12798 c 0,-2.70049 -1.530279,-4.54583 -4.050738,-4.54583 -3.465633,0 -6.886256,4.27578 -6.886256,9.99183 0,5.62602 3.870706,8.91162 7.966453,8.91162 6.616206,0 8.416535,-5.44599 8.731592,-8.19149 0.180033,-1.57529 -2.340427,-2.47545 -2.745501,-0.45008 -0.540098,2.7455 -1.980361,5.67103 -5.491001,5.67103 -2.340427,0 -3.555649,-1.26023 -4.185764,-2.79051 4.365797,-1.30524 6.661215,-5.26596 6.661215,-8.59657 z m -7.246321,5.31097 c -0.09002,-1.89034 0.585106,-6.84125 2.790509,-6.84125 0.585106,0 0.945172,0.58511 0.945172,1.57529 0,2.70049 -1.440263,5.04092 -3.690673,6.07611 0,-0.27005 -0.04501,-0.5401 -0.04501,-0.81015 z"
         style="font-style:normal;font-variant:normal;font-weight:normal;font-stretch:normal;font-size:45.00820923px;font-family:'Grand Hotel';-inkscape-font-specification:'Grand Hotel, Normal';font-variant-ligatures:normal;font-variant-caps:normal;font-variant-numeric:normal;font-feature-settings:normal;text-align:center;writing-mode:lr-tb;text-anchor:middle;stroke-width:0.93766826px"
         id="path830" />
      <path
         d="m 87.881258,255.57642 c 1.575287,0 2.745501,-1.26023 2.745501,-2.7455 0,-1.57528 -1.170214,-2.7455 -2.745501,-2.7455 -1.485271,0 -2.700493,1.17022 -2.700493,2.7455 0,1.48527 1.215222,2.7455 2.700493,2.7455 z m 1.035189,6.43618 c 0,-1.0802 -0.945173,-1.98036 -2.430443,-1.98036 -0.630115,0 -1.170214,0.31505 -1.170214,0.76514 0,0.31505 0.180033,0.5851 0.180033,1.44026 v 12.01719 c 0,2.29542 1.395254,4.23077 3.780689,4.23077 3.870706,0 5.626027,-4.05074 6.436174,-7.02128 0.360066,-1.44026 -2.070377,-3.55565 -2.610476,-0.81015 -0.405074,1.98036 -1.215221,4.86089 -3.01555,4.86089 -1.170213,0 -1.170213,-1.6653 -1.170213,-2.07038 z"
         style="font-style:normal;font-variant:normal;font-weight:normal;font-stretch:normal;font-size:45.00820923px;font-family:'Grand Hotel';-inkscape-font-specification:'Grand Hotel, Normal';font-variant-ligatures:normal;font-variant-caps:normal;font-variant-numeric:normal;font-feature-settings:normal;text-align:center;writing-mode:lr-tb;text-anchor:middle;stroke-width:0.93766826px"
         id="path832" />
      <path
         d="m 114.63253,278.84567 c 3.78069,0 6.70623,-3.01555 6.70623,-6.66122 0,-7.51637 -11.02702,-7.65139 -11.02702,-14.62767 0,-4.90589 5.53601,-8.86661 8.86662,-8.86661 1.80033,0 2.47545,0.94517 2.47545,2.47545 0,2.97054 -4.05074,6.75123 -6.48118,6.75123 -0.76514,0 -1.17021,-0.45008 -1.17021,0.31506 0,0.94517 0.94517,2.61047 2.52046,2.61047 2.7455,0 8.55156,-4.72586 8.55156,-9.72177 0,-3.51064 -2.1604,-5.80606 -5.67104,-5.80606 -6.12111,0 -12.6023,6.30115 -12.6023,12.24223 0,9.18168 10.98201,9.40672 10.98201,14.7627 0,1.93535 -1.30524,3.15057 -3.15058,3.15057 -1.71031,0 -2.47545,-0.94517 -2.61047,-1.08019 -0.13503,-0.27005 -0.27005,-0.40508 -0.49509,-0.40508 -0.67513,0 -1.75532,1.57529 -1.75532,2.61048 0,0.27005 1.03518,2.25041 4.86088,2.25041 z"
         style="font-style:normal;font-variant:normal;font-weight:normal;font-stretch:normal;font-size:45.00820923px;font-family:'Grand Hotel';-inkscape-font-specification:'Grand Hotel, Normal';font-variant-ligatures:normal;font-variant-caps:normal;font-variant-numeric:normal;font-feature-settings:normal;text-align:center;writing-mode:lr-tb;text-anchor:middle;stroke-width:0.93766826px"
         id="path834" />
      <path
         d="m 128.56304,276.50524 c 0,1.6653 1.26023,1.98036 2.16039,1.98036 1.30524,0 1.26023,-1.08019 1.26023,-1.93535 v -6.5712 c 0.31506,-3.55565 3.10557,-7.42635 4.41081,-7.42635 0.85515,0 0.94517,1.17021 0.94517,2.56546 v 9.13667 c 0,2.29542 1.39525,4.23077 3.78069,4.23077 3.8707,0 5.62602,-4.05074 6.43617,-7.02128 0.36007,-1.44026 -2.07038,-3.55565 -2.61047,-0.81015 -0.40508,1.98036 -1.21523,4.86089 -3.01555,4.86089 -1.17022,0 -1.17022,-1.6653 -1.17022,-2.07038 v -9.3167 c 0,-2.07037 -0.72013,-4.54583 -3.73568,-4.54583 -2.2054,0 -3.8257,1.93536 -5.04092,4.45582 v -14.7627 c 0,-1.08019 -0.94517,-1.98036 -2.43044,-1.98036 -0.63012,0 -1.44026,0.18004 -1.44026,0.49509 0,0.31506 0.45008,0.40508 0.45008,1.71032 z"
         style="font-style:normal;font-variant:normal;font-weight:normal;font-stretch:normal;font-size:45.00820923px;font-family:'Grand Hotel';-inkscape-font-specification:'Grand Hotel, Normal';font-variant-ligatures:normal;font-variant-caps:normal;font-variant-numeric:normal;font-feature-settings:normal;text-align:center;writing-mode:lr-tb;text-anchor:middle;stroke-width:0.93766826px"
         id="path836" />
      <path
         d="m 149.40652,255.57642 c 1.57529,0 2.7455,-1.26023 2.7455,-2.7455 0,-1.57528 -1.17021,-2.7455 -2.7455,-2.7455 -1.48527,0 -2.70049,1.17022 -2.70049,2.7455 0,1.48527 1.21522,2.7455 2.70049,2.7455 z m 1.03519,6.43618 c 0,-1.0802 -0.94517,-1.98036 -2.43045,-1.98036 -0.63011,0 -1.17021,0.31505 -1.17021,0.76514 0,0.31505 0.18003,0.5851 0.18003,1.44026 v 12.01719 c 0,2.29542 1.39526,4.23077 3.78069,4.23077 3.87071,0 5.62603,-4.05074 6.43618,-7.02128 0.36006,-1.44026 -2.07038,-3.55565 -2.61048,-0.81015 -0.40507,1.98036 -1.21522,4.86089 -3.01555,4.86089 -1.17021,0 -1.17021,-1.6653 -1.17021,-2.07038 z"
         style="font-style:normal;font-variant:normal;font-weight:normal;font-stretch:normal;font-size:45.00820923px;font-family:'Grand Hotel';-inkscape-font-specification:'Grand Hotel, Normal';font-variant-ligatures:normal;font-variant-caps:normal;font-variant-numeric:normal;font-feature-settings:normal;text-align:center;writing-mode:lr-tb;text-anchor:middle;stroke-width:0.93766826px"
         id="path838" />
    </g>
  </g>
</svg>
