<?xml version="1.0" encoding="UTF-8" standalone="no"?>
<!-- Created with Inkscape (http://www.inkscape.org/) -->

<svg
   xmlns:dc="http://purl.org/dc/elements/1.1/"
   xmlns:cc="http://creativecommons.org/ns#"
   xmlns:rdf="http://www.w3.org/1999/02/22-rdf-syntax-ns#"
   xmlns:svg="http://www.w3.org/2000/svg"
   xmlns="http://www.w3.org/2000/svg"
   xmlns:sodipodi="http://sodipodi.sourceforge.net/DTD/sodipodi-0.dtd"
   xmlns:inkscape="http://www.inkscape.org/namespaces/inkscape"
   width="210mm"
   height="180mm"
   viewBox="0 0 210 180"
   version="1.1"
   id="svg2184"
   inkscape:version="0.92.3 (2405546, 2018-03-11)"
   sodipodi:docname="xuefei.svg">
  <defs
     id="defs2178">
    <filter
       inkscape:collect="always"
       style="color-interpolation-filters:sRGB"
       id="filter2330"
       x="-0.27239999"
       width="1.5448"
       y="-0.27239999"
       height="1.5448">
      <feGaussianBlur
         inkscape:collect="always"
         stdDeviation="1.9519635"
         id="feGaussianBlur2332" />
    </filter>
  </defs>
  <sodipodi:namedview
     id="base"
     pagecolor="#ffffff"
     bordercolor="#666666"
     borderopacity="1.0"
     inkscape:pageopacity="0.0"
     inkscape:pageshadow="2"
     inkscape:zoom="0.98994949"
     inkscape:cx="846.60566"
     inkscape:cy="393.58061"
     inkscape:document-units="mm"
     inkscape:current-layer="layer1"
     showgrid="false"
     inkscape:pagecheckerboard="true"
     inkscape:window-width="3840"
     inkscape:window-height="2035"
     inkscape:window-x="-13"
     inkscape:window-y="-13"
     inkscape:window-maximized="1" />
  <metadata
     id="metadata2181">
    <rdf:RDF>
      <cc:Work
         rdf:about="">
        <dc:format>image/svg+xml</dc:format>
        <dc:type
           rdf:resource="http://purl.org/dc/dcmitype/StillImage" />
        <dc:title></dc:title>
      </cc:Work>
    </rdf:RDF>
  </metadata>
  <g
     inkscape:label="Layer 1"
     inkscape:groupmode="layer"
     id="layer1"
     transform="translate(0,-117)">
    <g
       id="g3076"
       transform="translate(-0.25045507,10.592068)">
      <path
         transform="scale(0.26458333)"
         id="path2789"
         d="m 397.79688,556.83398 a 392.81053,255.56858 0 0 0 -33.55665,1.09571 392.81053,255.56858 0 0 0 -19.10351,1.50976 392.81053,255.56858 0 0 0 -19.87695,1.95703 392.81053,255.56858 0 0 0 -18.46875,2.69727 392.81053,255.56858 0 0 0 -19.75782,3.28516 392.81053,255.56858 0 0 0 -17.6914,3.82421 392.81053,255.56858 0 0 0 -19.43946,4.61719 392.81053,255.56858 0 0 0 -16.75976,4.88086 392.81053,255.56858 0 0 0 -18.86719,5.93164 392.81053,255.56858 0 0 0 -15.67187,5.84961 392.81053,255.56858 0 0 0 -18.14454,7.24024 392.81053,255.56858 0 0 0 -14.42773,6.71289 392.81053,255.56858 0 0 0 -17.17578,8.49804 392.81053,255.56858 0 0 0 -13.11719,7.4961 392.81053,255.56858 0 0 0 -16.01367,9.71093 392.81053,255.56858 0 0 0 -11.71094,8.17969 392.81053,255.56858 0 0 0 -14.582029,10.80274 392.81053,255.56858 0 0 0 -10.320313,8.83203 392.81053,255.56858 0 0 0 -12.93164,11.76953 392.81053,255.56858 0 0 0 -8.832032,9.37305 392.81053,255.56858 0 0 0 -11.138672,12.63867 392.81053,255.56858 0 0 0 -7.287109,9.81445 392.81053,255.56858 0 0 0 -9.197266,13.375 392.81053,255.56858 0 0 0 -10.730468,19.12695 392.81053,255.56858 0 0 0 -0.0078,0.0137 392.81053,255.56858 0 0 0 -17.9999999,76.33593 392.81053,255.56858 0 0 0 17.9999999,75.57813 392.81053,255.56858 0 0 0 0.002,0.002 392.81053,255.56858 0 0 0 13.396485,23.86328 392.81053,255.56858 0 0 0 0.298828,0.43164 392.81053,255.56858 0 0 0 16.648437,22.41211 392.81053,255.56858 0 0 0 0.826172,0.9375 392.81053,255.56858 0 0 0 19.486328,20.66797 392.81053,255.56858 0 0 0 1.619141,1.47461 392.81053,255.56858 0 0 0 21.86914,18.70703 392.81053,255.56858 0 0 0 2.632813,1.95117 392.81053,255.56858 0 0 0 23.765625,16.58789 392.81053,255.56858 0 0 0 3.95313,2.39649 392.81053,255.56858 0 0 0 25.06835,14.32422 392.81053,255.56858 0 0 0 5.64454,2.791 392.81053,255.56858 0 0 0 25.74609,11.9727 392.81053,255.56858 0 0 0 7.5293,3.0039 392.81053,255.56858 0 0 0 25.94922,9.6797 392.81053,255.56858 0 0 0 9.53124,2.9941 392.81053,255.56858 0 0 0 25.63868,7.4629 392.81053,255.56858 0 0 0 11.79101,2.8008 392.81053,255.56858 0 0 0 24.80274,5.3574 392.81053,255.56858 0 0 0 14.01367,2.3262 392.81053,255.56858 0 0 0 23.60937,3.4453 392.81053,255.56858 0 0 0 16.27539,1.6016 392.81053,255.56858 0 0 0 22.03711,1.7363 392.81053,255.56858 0 0 0 32.67579,1.0625 392.81053,255.56858 0 0 0 33.5957,-1.0977 392.81053,255.56858 0 0 0 19.01953,-1.5019 392.81053,255.56858 0 0 0 19.93555,-1.9629 392.81053,255.56858 0 0 0 18.3789,-2.6836 392.81053,255.56858 0 0 0 19.88086,-3.3066 392.81053,255.56858 0 0 0 17.54688,-3.793 392.81053,255.56858 0 0 0 19.57422,-4.6504 392.81053,255.56858 0 0 0 16.62304,-4.8398 392.81053,255.56858 0 0 0 19.00977,-5.9766 392.81053,255.56858 0 0 0 15.5664,-5.8105 392.81053,255.56858 0 0 0 18.20899,-7.2657 392.81053,255.56858 0 0 0 14.42578,-6.7129 392.81053,255.56858 0 0 0 17.18359,-8.5019 392.81053,255.56858 0 0 0 13.125,-7.502 392.81053,255.56858 0 0 0 15.97461,-9.68359 392.81053,255.56858 0 0 0 11.75782,-8.21094 392.81053,255.56858 0 0 0 14.56836,-10.79297 392.81053,255.56858 0 0 0 10.30078,-8.81835 392.81053,255.56858 0 0 0 12.94336,-11.7793 392.81053,255.56858 0 0 0 8.81445,-9.35156 392.81053,255.56858 0 0 0 11.16601,-12.67188 392.81053,255.56858 0 0 0 7.25586,-9.77344 392.81053,255.56858 0 0 0 9.22657,-13.41992 392.81053,255.56858 0 0 0 10.72265,-19.11133 392.81053,255.56858 0 0 0 0.008,-0.0137 392.81053,255.56858 0 0 0 17.99804,-76.33594 392.81053,255.56858 0 0 0 -17.99804,-75.57617 392.81053,255.56858 0 0 0 -13.39258,-23.85742 392.81053,255.56858 0 0 0 -0.31641,-0.45898 392.81053,255.56858 0 0 0 -16.62695,-22.38282 392.81053,255.56858 0 0 0 -0.85547,-0.96875 392.81053,255.56858 0 0 0 -19.47266,-20.65429 392.81053,255.56858 0 0 0 -1.60156,-1.45703 392.81053,255.56858 0 0 0 -21.87305,-18.71094 392.81053,255.56858 0 0 0 -2.66406,-1.97266 392.81053,255.56858 0 0 0 -23.71289,-16.55664 392.81053,255.56858 0 0 0 -4.05078,-2.45508 392.81053,255.56858 0 0 0 -24.99024,-14.27734 392.81053,255.56858 0 0 0 -5.65625,-2.79688 392.81053,255.56858 0 0 0 -25.75195,-11.97656 392.81053,255.56858 0 0 0 -7.51953,-2.99805 392.81053,255.56858 0 0 0 -25.91602,-9.66796 392.81053,255.56858 0 0 0 -9.61718,-3.02344 392.81053,255.56858 0 0 0 -25.60938,-7.45117 392.81053,255.56858 0 0 0 -11.71875,-2.78321 392.81053,255.56858 0 0 0 -24.84961,-5.36914 392.81053,255.56858 0 0 0 -14.03515,-2.33203 392.81053,255.56858 0 0 0 -23.57227,-3.43945 392.81053,255.56858 0 0 0 -16.36719,-1.60938 392.81053,255.56858 0 0 0 -21.92578,-1.72656 392.81053,255.56858 0 0 0 -32.71679,-1.06641 z"
         style="opacity:1;fill:#85c9dd;fill-opacity:1;stroke:none;stroke-width:9.20919228;stroke-linecap:round;stroke-miterlimit:4;stroke-dasharray:none;stroke-opacity:1"
         inkscape:connector-curvature="0" />
      <path
         transform="scale(0.26458333)"
         id="path3014"
         d="m 607.23242,615.53516 c -0.36083,-1.97344 -0.63567,-3.89535 -1.04883,-5.89649 -0.25161,-1.2187 -0.60547,-2.47741 -0.87695,-3.70508 0.71556,3.23776 1.34656,6.43186 1.92578,9.60157 z"
         style="opacity:1;fill:#ffffff;fill-opacity:1;stroke:none;stroke-width:102.8026123;stroke-linecap:round;stroke-miterlimit:4;stroke-dasharray:none;stroke-opacity:1"
         inkscape:connector-curvature="0" />
      <path
         transform="scale(0.26458333)"
         id="path3012"
         d="m 609.68359,631.70898 c -0.30193,-2.5433 -0.54253,-5.03268 -0.93359,-7.64843 -0.11367,-0.76029 -0.29266,-1.56232 -0.41406,-2.32813 0.53758,3.39518 0.95898,6.69904 1.34765,9.97656 z"
         style="opacity:1;fill:#ffffff;fill-opacity:1;stroke:none;stroke-width:102.8026123;stroke-linecap:round;stroke-miterlimit:4;stroke-dasharray:none;stroke-opacity:1"
         inkscape:connector-curvature="0" />
      <path
         transform="scale(0.26458333)"
         id="path3010"
         d="m 611.29297,650.75977 c -0.15861,-4.14699 -0.44313,-8.46715 -0.86328,-12.92774 -0.033,-0.3505 -0.0981,-0.72981 -0.13281,-1.08203 0.47517,4.83083 0.82515,9.54017 0.99609,14.00977 z"
         style="opacity:1;fill:#ffffff;fill-opacity:1;stroke:none;stroke-width:102.8026123;stroke-linecap:round;stroke-miterlimit:4;stroke-dasharray:none;stroke-opacity:1"
         inkscape:connector-curvature="0" />
      <path
         transform="scale(0.26458333)"
         id="path3008"
         d="m 647.19336,824.69141 c 0.12584,-1.62732 0.11609,-3.51571 -0.0801,-5.72852 -0.19617,-2.21281 -0.57919,-4.75058 -1.19922,-7.67773 1.24007,5.85431 1.53063,10.15158 1.2793,13.40625 z"
         style="opacity:1;fill:#ffffff;fill-opacity:1;stroke:none;stroke-width:102.8026123;stroke-linecap:round;stroke-miterlimit:4;stroke-dasharray:none;stroke-opacity:1"
         inkscape:connector-curvature="0" />
      <path
         transform="scale(0.26458333)"
         id="path3006"
         d="m 595.20508,871.27539 c 1.45187,-2.63398 3.09141,-5.04697 4.85547,-7.25195 1.76406,-2.20499 3.65333,-4.20116 5.60742,-5.99805 -3.9086,3.59376 -7.55887,7.98174 -10.46289,13.25 z"
         style="opacity:1;fill:#ffffff;fill-opacity:1;stroke:none;stroke-width:102.8026123;stroke-linecap:round;stroke-miterlimit:4;stroke-dasharray:none;stroke-opacity:1"
         inkscape:connector-curvature="0" />
      <path
         transform="scale(0.26458333)"
         id="path3004"
         d="m 583.22461,890.24219 c 0.89596,-0.40094 1.71577,-0.81314 2.47656,-1.31641 0.76079,-0.50327 1.46245,-1.09741 2.125,-1.85937 -1.32506,1.52385 -2.80963,2.37389 -4.60156,3.17578 z"
         style="opacity:1;fill:#ffffff;fill-opacity:1;stroke:none;stroke-width:102.8026123;stroke-linecap:round;stroke-miterlimit:4;stroke-dasharray:none;stroke-opacity:1"
         inkscape:connector-curvature="0" />
      <path
         transform="scale(0.26458333)"
         id="path3002"
         d="m 516.88477,910.05273 c 3.2e-4,-2.7e-4 0.002,2.8e-4 0.002,0 1.40277,-1.18803 2.3417,-2.20226 2.78125,-2.94726 -0.43955,0.745 -1.3804,1.75922 -2.7832,2.94726 z"
         style="opacity:1;fill:#ffffff;fill-opacity:1;stroke:none;stroke-width:102.8026123;stroke-linecap:round;stroke-miterlimit:4;stroke-dasharray:none;stroke-opacity:1"
         inkscape:connector-curvature="0" />
      <path
         transform="scale(0.26458333)"
         id="path3000"
         d="m 507.74219,1004.8848 c -0.72418,-4.2744 -1.54764,-8.49652 -2.4668,-12.62113 -0.91916,-4.1246 -1.93419,-8.15065 -3.03516,-12.03125 2.20199,7.76129 4.05352,16.10346 5.50196,24.65238 z"
         style="opacity:1;fill:#ffffff;fill-opacity:1;stroke:none;stroke-width:102.8026123;stroke-linecap:round;stroke-miterlimit:4;stroke-dasharray:none;stroke-opacity:1"
         inkscape:connector-curvature="0" />
      <path
         transform="scale(0.26458333)"
         id="path2998"
         d="m 510.82617,1030.7715 c -0.29469,-4.2913 -0.70272,-8.6252 -1.21875,-12.9551 -0.51602,-4.3299 -1.14105,-8.6573 -1.86523,-12.9316 1.44844,8.5488 2.49453,17.3041 3.08398,25.8867 z"
         style="opacity:1;fill:#ffffff;fill-opacity:1;stroke:none;stroke-width:102.8026123;stroke-linecap:round;stroke-miterlimit:4;stroke-dasharray:none;stroke-opacity:1"
         inkscape:connector-curvature="0" />
      <path
         transform="scale(0.26458333)"
         id="path2996"
         d="m 298.49805,959.51562 c -1.71204,4.8032 -3.22525,9.46282 -4.56055,13.99415 -1.3353,4.53132 -2.49245,8.93377 -3.49609,13.22656 2.00741,-8.58563 4.63256,-17.61432 8.05664,-27.22071 z"
         style="opacity:1;fill:#ffffff;fill-opacity:1;stroke:none;stroke-width:102.8026123;stroke-linecap:round;stroke-miterlimit:4;stroke-dasharray:none;stroke-opacity:1"
         inkscape:connector-curvature="0" />
      <path
         transform="scale(0.26458333)"
         id="path2994"
         d="m 150.70117,856.47266 c 1.22513,1.36732 2.59674,2.49627 4.03711,3.41211 1.44037,0.91583 2.94977,1.61827 4.44727,2.13476 -2.99467,-1.03309 -6.03412,-2.81222 -8.48438,-5.54687 z"
         style="opacity:1;fill:#ffffff;fill-opacity:1;stroke:none;stroke-width:102.8026123;stroke-linecap:round;stroke-miterlimit:4;stroke-dasharray:none;stroke-opacity:1"
         inkscape:connector-curvature="0" />
      <path
         transform="scale(0.26458333)"
         id="path2992"
         d="m 144.75977,844.13867 c 0.3023,1.43032 0.6715,2.74617 1.09375,3.95703 0.42224,1.21087 0.89817,2.31681 1.4121,3.33008 -1.02784,-2.02654 -1.90126,-4.42648 -2.50585,-7.28711 z"
         style="opacity:1;fill:#ffffff;fill-opacity:1;stroke:none;stroke-width:102.8026123;stroke-linecap:round;stroke-miterlimit:4;stroke-dasharray:none;stroke-opacity:1"
         inkscape:connector-curvature="0" />
      <path
         transform="scale(0.26458333)"
         id="path2990"
         d="m 144.21094,828.20703 c -0.20298,2.08107 -0.32657,4.05155 -0.34766,5.87891 -0.0223,1.93479 0.051,3.73267 0.20508,5.40429 -0.29961,-3.24992 -0.27512,-6.99953 0.14258,-11.2832 z"
         style="opacity:1;fill:#ffffff;fill-opacity:1;stroke:none;stroke-width:102.8026123;stroke-linecap:round;stroke-miterlimit:4;stroke-dasharray:none;stroke-opacity:1"
         inkscape:connector-curvature="0" />
      <path
         transform="scale(0.26458333)"
         id="path2988"
         d="m 150.07812,806.38672 c -1.20816,2.93144 -2.25192,5.62425 -3.07421,8.0332 -0.82229,2.40895 -1.4237,4.53367 -1.75,6.32617 0.65261,-3.58501 2.40806,-8.4966 4.82421,-14.35937 z"
         style="opacity:1;fill:#ffffff;fill-opacity:1;stroke:none;stroke-width:102.8026123;stroke-linecap:round;stroke-miterlimit:4;stroke-dasharray:none;stroke-opacity:1"
         inkscape:connector-curvature="0" />
      <path
         transform="scale(0.26458333)"
         id="path2986"
         d="m 172.58203,671.05859 c 0.13874,0.91582 0.22116,1.85531 0.37695,2.76368 0.0118,0.0688 0.0311,0.13433 0.043,0.20312 -0.16903,-0.97631 -0.27058,-1.98185 -0.41992,-2.9668 z"
         style="opacity:1;fill:#ffffff;fill-opacity:1;stroke:none;stroke-width:102.8026123;stroke-linecap:round;stroke-miterlimit:4;stroke-dasharray:none;stroke-opacity:1"
         inkscape:connector-curvature="0" />
      <path
         transform="scale(0.26458333)"
         id="path2984"
         d="m 171.40039,660.80469 c 0.0856,1.05813 0.11166,2.13738 0.21875,3.1875 0.0149,0.14578 0.0433,0.28602 0.0586,0.43164 -0.12552,-1.19435 -0.1797,-2.41436 -0.27734,-3.61914 z"
         style="opacity:1;fill:#ffffff;fill-opacity:1;stroke:none;stroke-width:102.8026123;stroke-linecap:round;stroke-miterlimit:4;stroke-dasharray:none;stroke-opacity:1"
         inkscape:connector-curvature="0" />
      <path
         transform="scale(0.26458333)"
         id="path2982"
         d="m 170.91211,650.80273 c 0.0177,1.03365 -0.0218,2.08376 0.0156,3.11133 0.007,0.20595 0.0327,0.40563 0.041,0.61133 -0.0498,-1.23136 -0.0351,-2.4825 -0.0566,-3.72266 z"
         style="opacity:1;fill:#ffffff;fill-opacity:1;stroke:none;stroke-width:102.8026123;stroke-linecap:round;stroke-miterlimit:4;stroke-dasharray:none;stroke-opacity:1"
         inkscape:connector-curvature="0" />
      <path
         transform="scale(0.26458333)"
         id="path2980"
         d="m 171.05078,640.5625 c -0.0452,1.02066 -0.14711,2.05418 -0.17383,3.07031 -0.007,0.27911 0.01,0.55133 0.004,0.83008 0.0273,-1.29323 0.11259,-2.59973 0.16992,-3.90039 z"
         style="opacity:1;fill:#ffffff;fill-opacity:1;stroke:none;stroke-width:102.8026123;stroke-linecap:round;stroke-miterlimit:4;stroke-dasharray:none;stroke-opacity:1"
         inkscape:connector-curvature="0" />
      <path
         transform="scale(0.26458333)"
         id="path2978"
         d="m 171.8125,630.27148 c -0.10037,0.9699 -0.25769,1.94906 -0.3418,2.91602 -0.03,0.34468 -0.0307,0.68306 -0.0586,1.02734 0.10592,-1.30965 0.26455,-2.62822 0.40039,-3.94336 z"
         style="opacity:1;fill:#ffffff;fill-opacity:1;stroke:none;stroke-width:102.8026123;stroke-linecap:round;stroke-miterlimit:4;stroke-dasharray:none;stroke-opacity:1"
         inkscape:connector-curvature="0" />
      <path
         transform="scale(0.26458333)"
         id="path2976"
         d="m 173.18555,619.89648 c -0.14645,0.90635 -0.346,1.81793 -0.47852,2.72266 -0.0595,0.40606 -0.0859,0.80719 -0.14258,1.21289 0.18263,-1.30893 0.40923,-2.62311 0.6211,-3.93555 z"
         style="opacity:1;fill:#ffffff;fill-opacity:1;stroke:none;stroke-width:102.8026123;stroke-linecap:round;stroke-miterlimit:4;stroke-dasharray:none;stroke-opacity:1"
         inkscape:connector-curvature="0" />
      <path
         transform="scale(0.26458333)"
         id="path2974"
         d="m 175.1875,609.38867 c -0.18924,0.86105 -0.43061,1.72357 -0.60742,2.58399 -0.0976,0.4751 -0.15616,0.94701 -0.25,1.42187 0.26353,-1.33424 0.56392,-2.66996 0.85742,-4.00586 z"
         style="opacity:1;fill:#ffffff;fill-opacity:1;stroke:none;stroke-width:102.8026123;stroke-linecap:round;stroke-miterlimit:4;stroke-dasharray:none;stroke-opacity:1"
         inkscape:connector-curvature="0" />
      <path
         transform="scale(0.26458333)"
         id="path2972"
         d="m 146.16992,651.21484 c -0.11068,-5.67069 -0.0404,-11.37991 0.35938,-17.13672 0.40394,-5.81642 1.13565,-11.67084 2.05468,-17.53124 -1.82861,11.66197 -2.64011,23.26654 -2.41406,34.66796 z"
         style="opacity:1;fill:#ffffff;fill-opacity:1;stroke:none;stroke-width:102.8026123;stroke-linecap:round;stroke-miterlimit:4;stroke-dasharray:none;stroke-opacity:1"
         inkscape:connector-curvature="0" />
      <path
         transform="scale(0.26458333)"
         id="path2970"
         d="m 123.48438,806.52539 c 1.05402,-3.25475 2.30332,-6.51171 3.67578,-9.80469 2.74492,-6.58595 5.98828,-13.31686 9.18164,-20.46875 -4.79003,10.72783 -9.6953,20.50921 -12.85742,30.27344 z"
         style="opacity:1;fill:#ffffff;fill-opacity:1;stroke:none;stroke-width:102.8026123;stroke-linecap:round;stroke-miterlimit:4;stroke-dasharray:none;stroke-opacity:1"
         inkscape:connector-curvature="0" />
      <path
         transform="scale(0.26458333)"
         id="path2968"
         d="m 274.00391,949.26562 c -2.91646,-1.13674 -5.76328,-2.33025 -8.51172,-3.60937 -2.74845,-1.27912 -5.3984,-2.64458 -7.91797,-4.125 -2.51958,-1.48042 -4.90882,-3.07578 -7.13867,-4.81641 6.68976,5.22207 14.819,9.14054 23.56836,12.55078 z"
         style="opacity:1;fill:#ffffff;fill-opacity:1;stroke:none;stroke-width:102.8026123;stroke-linecap:round;stroke-miterlimit:4;stroke-dasharray:none;stroke-opacity:1"
         inkscape:connector-curvature="0" />
      <path
         transform="scale(0.26458333)"
         id="path2962"
         d="m 529.81445,931.4707 c -2.25931,1.64116 -4.69245,3.14534 -7.25781,4.5586 -2.56536,1.41325 -5.26244,2.73486 -8.04883,4.00781 5.57278,-2.54589 10.78793,-5.28387 15.30664,-8.56641 z"
         style="opacity:1;fill:#ffffff;fill-opacity:1;stroke:none;stroke-width:102.8026123;stroke-linecap:round;stroke-miterlimit:4;stroke-dasharray:none;stroke-opacity:1"
         inkscape:connector-curvature="0" />
      <path
         id="path2960"
         transform="scale(0.26458333)"
         d="m 399.31445,416.6875 -0.01,0.002 c -146.7654,0 -234.34069,100.366 -250.4668,198.25391 -0.0881,0.53475 -0.17008,1.06893 -0.25391,1.60352 -0.91903,5.86039 -1.65074,11.71483 -2.05468,17.53124 -0.39981,5.75681 -0.47006,11.46603 -0.35938,17.13672 0.0183,0.92545 0.0168,1.85485 0.0488,2.77735 0.1877,5.45053 0.62439,10.84505 1.29297,16.16992 0.24519,1.9489 0.52204,3.88786 0.83203,5.81641 0.18273,1.13809 0.34149,2.28357 0.54687,3.41406 0.60421,3.32276 1.28155,6.62065 2.08204,9.87109 0.59399,2.41179 1.02024,4.80764 1.4082,7.19531 -2.73104,10.91377 -3.35011,22.55167 -1.21484,34.14454 l 0.0156,0.0664 0.0195,0.0684 c 0.0746,0.38113 0.1715,0.75849 0.25195,1.13867 -3.04823,15.69566 -8.98313,30.6501 -15.11132,44.375 -3.19336,7.15189 -6.43672,13.8828 -9.18164,20.46875 -1.37246,3.29298 -2.62177,6.54994 -3.67578,9.80469 -1.05405,3.25474 -1.91367,6.50762 -2.51172,9.79297 -2.30195,12.64486 -2.16069,23.79231 -0.0957,33.2832 1.0325,4.74545 2.54567,9.0778 4.47461,12.97461 1.92895,3.89681 4.27355,7.35912 6.96875,10.36719 8.08551,9.02421 18.38567,13.53229 28.22071,14.64844 3.27834,0.37205 6.50399,0.3673 9.58007,0.0273 6.52974,-0.72162 10.41098,-0.52871 12.13282,-0.16406 1.72183,0.36472 1.55462,0.30804 2.73632,1.51367 2.36332,2.41157 7.48498,11.89783 18.8711,25.0332 4.51073,5.20366 10.18381,8.71473 15.49609,10.11524 5.31229,1.40054 9.56052,1.06539 12.3711,1.05273 5.62125,-0.0265 5.95658,-1.34266 12.52734,5.85938 1.87927,2.05974 3.94977,3.94486 6.17969,5.68554 2.22985,1.74063 4.61909,3.33599 7.13867,4.81641 2.51957,1.48042 5.16952,2.84588 7.91797,4.125 2.74844,1.27912 5.59526,2.47264 8.51172,3.60937 -0.40238,2.34864 -0.65807,4.71417 -0.14453,6.7793 7.7e-4,0.003 -6.5e-4,0.004 0,0.008 -1.75534,5.21884 -3.26634,10.28467 -4.64063,15.25977 -0.43511,1.57535 -0.79355,3.10044 -1.19336,4.65234 -0.86811,3.3692 -1.68807,6.70427 -2.40039,9.9668 -0.38105,1.74572 -0.72877,3.46928 -1.06836,5.18555 -0.59865,3.02484 -1.13976,6.00666 -1.61914,8.94327 -0.26902,1.6488 -0.54687,3.3038 -0.78125,4.9258 -0.23772,1.6444 -0.40699,3.232 -0.61133,4.8496 -0.85527,6.776 -1.50795,13.3911 -1.8789,19.7344 -0.0127,0.2172 -0.0405,0.4473 -0.0527,0.6641 -0.34363,6.0885 -0.43503,11.9021 -0.48437,17.6445 -0.01,1.134 0.0172,2.1967 0.0156,3.3184 a 392.81053,255.56858 0 0 0 5.23828,1.2441 392.81053,255.56858 0 0 0 24.80274,5.3574 392.81053,255.56858 0 0 0 14.01367,2.3262 392.81053,255.56858 0 0 0 23.60937,3.4453 392.81053,255.56858 0 0 0 16.27539,1.6016 392.81053,255.56858 0 0 0 22.03711,1.7363 392.81053,255.56858 0 0 0 32.67579,1.0625 392.81053,255.56858 0 0 0 33.5957,-1.0977 392.81053,255.56858 0 0 0 19.01953,-1.5019 392.81053,255.56858 0 0 0 19.93555,-1.9629 392.81053,255.56858 0 0 0 18.3789,-2.6836 392.81053,255.56858 0 0 0 19.88086,-3.3066 392.81053,255.56858 0 0 0 17.54688,-3.793 392.81053,255.56858 0 0 0 10.36132,-2.4629 c 0.073,-3.0269 0.0783,-6.0866 0.0254,-9.1719 -0.0187,-1.0908 0.0184,-2.1574 -0.0156,-3.2539 -0.14226,-4.5731 -0.43121,-9.1921 -0.83398,-13.8222 -0.13324,-1.5326 -0.33912,-3.0656 -0.5,-4.5996 -0.33277,-3.1705 -0.68871,-6.3404 -1.13672,-9.502 -0.26175,-1.8478 -0.57494,-3.6823 -0.875,-5.5215 -0.46671,-2.8588 -0.96263,-5.70598 -1.51953,-8.53119 -0.36789,-1.86684 -0.7598,-3.7199 -1.16602,-5.56641 -0.62075,-2.8204 -1.2923,-5.60548 -2,-8.36524 -0.44075,-1.71902 -0.8741,-3.44233 -1.34766,-5.13281 -0.8257,-2.94669 -1.72611,-5.81439 -2.64843,-8.6582 -0.45722,-1.40988 -0.883,-2.85549 -1.36328,-4.23633 -1.44212,-4.14549 -2.96602,-8.18666 -4.60743,-12.02539 0.21166,-2.21106 0.29175,-4.50665 -0.45312,-6.61328 l -0.10547,-0.30273 -0.11719,-0.29688 c -0.87745,-2.12666 -2.30876,-3.56642 -3.34375,-5.52539 2.78639,-1.27295 5.48347,-2.59456 8.04883,-4.00781 2.56536,-1.41326 4.9985,-2.91744 7.25781,-4.5586 4.51872,-3.28254 8.34064,-7.1087 11.125,-11.82812 0.91847,-1.55698 1.39708,-1.92287 5.94922,-2.48828 4.55203,-0.56546 11.76694,-0.1202 19.84375,-0.0469 6.05747,0.055 12.77192,-0.0793 19.6543,-1.89648 2.29413,-0.60573 4.60863,-1.39842 6.92187,-2.4336 4.62656,-2.07031 9.01718,-5.30477 12.75782,-9.55273 1.87032,-2.12398 3.57782,-4.5013 5.07031,-7.11328 1.49248,-2.61198 2.77084,-5.45912 3.78125,-8.52149 2.27924,-6.9078 5.70627,-10.51955 10.86914,-14.11914 5.16283,-3.59954 12.14013,-6.55792 19.65039,-10.54687 7.51,-3.98895 16.05618,-9.43903 21.41797,-19.17188 2.68116,-4.8669 4.29519,-10.44433 4.83398,-16.71484 0.53869,-6.26928 0.003,-13.23067 -1.61328,-20.86328 -1.48459,-7.00905 -3.08424,-13.47321 -4.75195,-19.57422 -5.00313,-18.30304 -10.62307,-33.33419 -15.6211,-49.98242 -6.66402,-22.19765 -12.22248,-47.27026 -13.73437,-86.80274 -0.22875,-5.98102 -0.74511,-12.32113 -1.45117,-18.82031 -0.20877,-1.9251 -0.52897,-3.93562 -0.7832,-5.89844 -0.61199,-4.71489 -1.33635,-9.5086 -2.22657,-14.40625 -0.20845,-1.14684 -0.4649,-2.31547 -0.68945,-3.4707 C 624.15127,572.91903 610.49448,535.14201 585.53711,501.88281 549.59853,453.98955 489.75828,416.6875 399.31445,416.6875 Z m -0.01,24.6875 c 83.82013,0 134.59201,32.83157 166.47656,75.32227 19.14146,25.50859 31.06494,54.84304 37.94336,82.54492 0.55827,2.24835 1.09063,4.4679 1.58203,6.6914 0.27148,1.22767 0.62534,2.48638 0.87695,3.70508 0.41316,2.00114 0.688,3.92305 1.04883,5.89649 0.38018,2.08044 0.77977,4.15263 1.10352,6.19726 0.1214,0.76581 0.30039,1.56784 0.41406,2.32813 0.39106,2.61575 0.63166,5.10513 0.93359,7.64843 0.19929,1.68049 0.45149,3.39616 0.61329,5.04102 0.0347,0.35222 0.0998,0.73153 0.13281,1.08203 0.42015,4.46059 0.70467,8.78075 0.86328,12.92774 0.79268,20.72624 2.66659,37.88321 5.20312,52.76953 7.60961,44.65896 21.18452,68.88425 29.41797,107.75586 0.62003,2.92715 1.00305,5.46492 1.19922,7.67773 0.19617,2.21281 0.20592,4.1012 0.0801,5.72852 -0.25133,3.25467 -1.04596,5.4666 -1.97461,7.15234 -0.46455,0.84323 -1.03073,1.64408 -1.71289,2.42187 -2.04531,2.33209 -5.13402,4.45354 -9.65625,6.85547 -6.03035,3.20308 -14.09977,6.46086 -22.1875,12.09961 -2.02154,1.4094 -4.04042,3.00835 -5.99414,4.80469 -1.95409,1.79689 -3.84336,3.79306 -5.60742,5.99805 -1.76406,2.20498 -3.4036,4.61797 -4.85547,7.25195 -1.45187,2.63387 -2.71686,5.48841 -3.73438,8.57227 -1.15375,3.49691 -2.31946,5.6949 -3.64453,7.21875 -0.66255,0.76196 -1.36421,1.3561 -2.125,1.85937 -0.76079,0.50327 -1.5806,0.91547 -2.47656,1.31641 -3.5839,1.60373 -9.33522,2.24066 -16.27734,2.17773 -3.47108,-0.0316 -7.16237,-0.22994 -11.02735,-0.29101 -3.86498,-0.0611 -7.90478,0.0151 -12.07617,0.5332 -6.25706,0.77723 -13.60816,3.2259 -19.23242,8.36719 -1.87476,1.71376 -3.55678,3.7259 -4.94336,6.07617 -0.43955,0.745 -1.37848,1.75923 -2.78125,2.94726 0,0 -0.002,0 -0.002,0 -4.20842,3.56415 -12.58536,8.68878 -24.14844,12.77149 l -16.70117,5.89062 11.30859,13.62696 c 2.1871,2.63455 3.79908,5.84128 5.46094,8.99609 l -1.00391,1.54492 2.83594,6.18946 c 2.85009,6.21983 5.40153,13.39886 7.60351,21.16015 1.10097,3.8806 2.116,7.90665 3.03516,12.03125 0.91916,4.12461 1.74262,8.34673 2.4668,12.62113 0.72418,4.2743 1.34921,8.6017 1.86523,12.9316 0.51603,4.3299 0.92406,8.6638 1.21875,12.9551 0.58945,8.5826 0.72263,16.993 0.34766,24.8555 h -28.08008 -149.17773 -49.7168 c -0.23771,-21.3701 0.21993,-43.1338 6.24219,-68.89067 1.00364,-4.29279 2.16079,-8.69524 3.49609,-13.22656 1.3353,-4.53133 2.84851,-9.19095 4.56055,-13.99415 l 2.17187,-6.10351 -1.77539,-2.46875 c 0.52393,-1.55067 1.07707,-3.30962 1.57227,-4.61133 l 4.72461,-12.41992 -12.74024,-3.79883 c -14.3493,-4.27374 -24.87566,-10.14647 -29.96679,-15.72656 -2.66581,-2.92192 -5.49638,-5.25355 -8.34961,-7.10742 -1.42662,-0.92694 -2.85843,-1.73367 -4.2793,-2.43555 -4.2626,-2.10564 -8.42047,-3.26218 -12,-3.8457 -2.38636,-0.38902 -4.51601,-0.52343 -6.24805,-0.51563 -3.46411,0.0151 -5.21698,-0.0468 -5.95898,-0.24219 -0.74196,-0.1954 -1.17602,-0.1526 -3.13282,-2.41015 -9.68812,-11.17648 -12.47476,-18.56153 -19.90429,-26.14258 -3.71472,-3.79053 -9.24789,-7.11845 -15.2461,-8.38867 -5.99839,-1.27019 -12.18251,-1.07044 -19.95898,-0.21094 -2.27484,0.2514 -5.22603,-0.0353 -8.2207,-1.06836 -1.4975,-0.51649 -3.0069,-1.21893 -4.44727,-2.13476 -1.44037,-0.91584 -2.81198,-2.04479 -4.03711,-3.41211 -1.2251,-1.36733 -2.4077,-3.02034 -3.43555,-5.04688 -0.51392,-1.01327 -0.98986,-2.11921 -1.4121,-3.33008 -0.42225,-1.21086 -0.79145,-2.52671 -1.09375,-3.95703 -0.3023,-1.43031 -0.5373,-2.97681 -0.69141,-4.64844 -0.15412,-1.67162 -0.2274,-3.4695 -0.20508,-5.40429 0.0211,-1.82736 0.14468,-3.79784 0.34766,-5.87891 0.22684,-2.32634 0.55733,-4.79317 1.04297,-7.46094 0.3263,-1.7925 0.92771,-3.91722 1.75,-6.32617 0.82229,-2.40895 1.86606,-5.10176 3.07421,-8.0332 2.41616,-5.86277 5.49374,-12.6772 8.79297,-20.06641 1.64966,-3.6946 3.34355,-7.55885 5.01172,-11.58593 5.00452,-12.08128 9.77572,-25.63136 12.40235,-40.49415 l 0.45312,-2.58593 -0.62695,-2.55664 c -0.24537,-0.98457 -0.46678,-1.9705 -0.66406,-2.96875 -0.42878,-2.32792 -0.71699,-4.66358 -0.8711,-6.97657 -0.30822,-4.62597 -0.079,-9.16196 0.63867,-13.36718 0.35887,-2.10261 0.84034,-4.12214 1.4375,-6.0293 l 0.83789,-2.69922 -0.40429,-2.78711 c -0.52764,-3.58042 -1.23337,-7.22253 -2.14063,-10.90625 -0.75384,-3.06106 -1.39622,-6.17775 -1.94336,-9.33789 -0.0119,-0.0688 -0.0312,-0.13429 -0.043,-0.20312 -0.15579,-0.90837 -0.23821,-1.84786 -0.37695,-2.76368 -0.33334,-2.1986 -0.66902,-4.39622 -0.9043,-6.63476 -0.0153,-0.14562 -0.0437,-0.28586 -0.0586,-0.43164 -0.10709,-1.05012 -0.13319,-2.12937 -0.21875,-3.1875 -0.16897,-2.08488 -0.3461,-4.16585 -0.43164,-6.2793 -0.008,-0.2057 -0.0335,-0.40538 -0.041,-0.61133 -0.0374,-1.02757 0.002,-2.07768 -0.0156,-3.11133 -0.0366,-2.1063 -0.0762,-4.21078 -0.0312,-6.33984 0.006,-0.27875 -0.0112,-0.55097 -0.004,-0.83008 0.0267,-1.01613 0.12862,-2.04965 0.17383,-3.07031 0.0931,-2.11095 0.18922,-4.21968 0.36133,-6.34766 0.0279,-0.34428 0.0286,-0.68266 0.0586,-1.02734 0.0841,-0.96696 0.24143,-1.94612 0.3418,-2.91602 0.2213,-2.14255 0.45134,-4.28487 0.75195,-6.43945 0.0567,-0.4057 0.0831,-0.80683 0.14258,-1.21289 0.13252,-0.90473 0.33207,-1.81631 0.47852,-2.72266 0.34953,-2.16521 0.71549,-4.32977 1.14453,-6.50195 0.0938,-0.47486 0.15237,-0.94677 0.25,-1.42187 0.17681,-0.86042 0.41818,-1.72294 0.60742,-2.58399 0.47417,-2.15823 0.96919,-4.31457 1.52148,-6.47461 C 197.33778,522.23477 272.37831,441.375 399.30469,441.375 Z"
         style="opacity:1;fill:#ffffff;fill-opacity:1;stroke:none;stroke-width:102.8026123;stroke-linecap:round;stroke-miterlimit:4;stroke-dasharray:none;stroke-opacity:1"
         inkscape:connector-curvature="0" />
      <path
         style="opacity:1;fill:#502d16;fill-opacity:1;stroke:none;stroke-width:2.75696874;stroke-linecap:round;stroke-miterlimit:4;stroke-dasharray:none;stroke-opacity:1"
         d="m 174.0933,213.97643 c 3.02352,14.27444 -11.13899,9.65743 -14.49878,19.84033 -3.35978,10.18289 -15.86412,2.04828 -19.28518,7.84693 -6.36803,10.79374 -61.708834,15.14295 -73.272199,2.46902 -4.559865,-4.99791 -7.20915,-0.49473 -10.631628,-4.44294 -5.575897,-6.43251 -4.184698,-8.92252 -11.755168,-8.08587 -4.45928,0.49283 -11.623755,-2.99469 -9.432063,-15.03415 1.365073,-7.49887 11.605598,-19.92989 7.898871,-34.98181 -6.787349,-27.56074 15.436291,-68.07409 62.531237,-68.07409 46.10731,0 58.53407,37.11445 59.35356,58.54171 0.81949,21.42726 6.06786,27.64643 9.09135,41.92087 z"
         id="path2795"
         inkscape:connector-curvature="0"
         sodipodi:nodetypes="zzssssssszz" />
      <path
         sodipodi:nodetypes="cc"
         inkscape:connector-curvature="0"
         id="path2797"
         d="m 134.55207,165.75358 c -7.96549,-4.61095 -14.87957,0.64973 -14.87957,0.64973"
         style="fill:none;fill-rule:evenodd;stroke:#483737;stroke-width:2.61257887;stroke-linecap:round;stroke-linejoin:miter;stroke-miterlimit:4;stroke-dasharray:none;stroke-opacity:1" />
      <path
         style="opacity:1;fill:#fdcfc1;fill-opacity:1;stroke:none;stroke-width:3.45622396;stroke-linecap:round;stroke-miterlimit:4;stroke-dasharray:none;stroke-opacity:1"
         d="m 152.62876,200.91412 c -4.75149,13.3397 -16.39106,36.65881 -46.08537,36.65879 -29.694174,0 -44.688822,-18.83499 -50.274907,-37.00792 -8.724707,-28.38359 20.926351,-68.35204 50.620527,-68.35204 29.69431,0 55.89942,40.17851 45.73975,68.70117 z"
         id="path2799"
         inkscape:connector-curvature="0"
         sodipodi:nodetypes="szsss" />
      <path
         sodipodi:nodetypes="czc"
         inkscape:connector-curvature="0"
         id="path2801"
         d="m 48.266807,201.83138 c -1.686419,5.90779 3.193747,7.19411 4.98271,5.78794 1.788964,-1.40617 2.207891,-4.82304 0.593056,-8.0526"
         style="fill:none;fill-rule:evenodd;stroke:#ffcc00;stroke-width:2.41935682;stroke-linecap:round;stroke-linejoin:miter;stroke-miterlimit:4;stroke-dasharray:none;stroke-opacity:1" />
      <ellipse
         style="opacity:1;fill:#fdcfc1;fill-opacity:1;stroke:none;stroke-width:2.9045651;stroke-linecap:round;stroke-miterlimit:4;stroke-dasharray:none;stroke-opacity:1"
         id="ellipse2803"
         cx="-17.20591"
         cy="197.36234"
         rx="9.8749256"
         ry="13.948332"
         transform="matrix(-0.98322377,0.18240348,0.18240348,0.98322377,0,0)" />
      <g
         id="g2809"
         transform="matrix(1.3062894,0,0,1.3062894,1264.2556,-600.19402)">
        <circle
           transform="scale(-1,1)"
           style="opacity:1;fill:#4b4f57;fill-opacity:1;stroke:none;stroke-width:3.39762115;stroke-linecap:round;stroke-miterlimit:4;stroke-dasharray:none;stroke-opacity:1"
           id="circle2805"
           cx="875.61719"
           cy="601.78723"
           r="3.3296287" />
        <circle
           transform="scale(-1,1)"
           style="opacity:1;fill:#4b4f57;fill-opacity:1;stroke:none;stroke-width:3.39762115;stroke-linecap:round;stroke-miterlimit:4;stroke-dasharray:none;stroke-opacity:1"
           id="circle2807"
           cx="899.61737"
           cy="601.80084"
           r="3.3296287" />
      </g>
      <g
         id="g2815"
         transform="matrix(-1.3062894,0,0,1.3062894,1196.4868,-497.34591)">
        <path
           sodipodi:nodetypes="cscssc"
           inkscape:connector-curvature="0"
           id="path2811"
           d="m 854.98039,490.01601 c 5.45174,-4.6945 18.68736,-1.46944 24.3755,10.54463 1.10286,2.32937 5.80575,23.97791 -7.77872,24.93331 0,0 0.35675,-5.72539 -1.91355,-10.13562 -2.03593,-3.95495 -7.61682,-5.80008 -10.79494,-9.87008 -2.70406,-3.46286 -3.88829,-15.47224 -3.88829,-15.47224 z"
           style="opacity:1;fill:#502d16;fill-opacity:1;stroke:none;stroke-width:4.0926609;stroke-linecap:round;stroke-miterlimit:4;stroke-dasharray:none;stroke-opacity:1" />
        <path
           sodipodi:nodetypes="scssscs"
           inkscape:connector-curvature="0"
           id="path2813"
           d="m 836.13379,473.86863 c -7.6497,0.0254 -21.97137,4.66421 -26.87677,8.41446 -18.99728,15.59242 -11.50988,56.68062 -8.06971,58.14392 0.46438,0.19752 1.21849,-24.89854 7.69658,-28.20629 12.80379,-6.53767 23.784,0.27621 31.91713,-10.86622 7.34345,-10.06058 15.19253,-11.50866 15.19253,-11.50866 -2.3505,-14.08911 -8.67936,-16.01432 -19.85976,-15.97721 z"
           style="opacity:1;fill:#502d16;fill-opacity:1;stroke:none;stroke-width:3.13267994;stroke-linecap:round;stroke-miterlimit:4;stroke-dasharray:none;stroke-opacity:1" />
      </g>
      <path
         style="fill:none;fill-rule:evenodd;stroke:#4b4f57;stroke-width:1.72811198;stroke-linecap:round;stroke-linejoin:miter;stroke-miterlimit:4;stroke-dasharray:none;stroke-opacity:1"
         d="m 80.708361,167.14927 c 5.573453,-3.22629 10.411205,0.45462 10.411205,0.45462"
         id="path2817"
         inkscape:connector-curvature="0"
         sodipodi:nodetypes="cc" />
      <path
         style="fill:none;fill-rule:evenodd;stroke:#4b4f57;stroke-width:2.37961984;stroke-linecap:round;stroke-linejoin:miter;stroke-miterlimit:4;stroke-dasharray:none;stroke-opacity:1"
         d="m 95.408702,198.70519 c 10.068208,9.68074 18.524258,0.35454 18.719428,0.3155"
         id="path2819"
         inkscape:connector-curvature="0"
         sodipodi:nodetypes="cc" />
      <path
         style="fill:none;fill-rule:evenodd;stroke:#ffcc00;stroke-width:2.41935682;stroke-linecap:round;stroke-linejoin:miter;stroke-miterlimit:4;stroke-dasharray:none;stroke-opacity:1"
         d="m 47.964271,203.68911 c -0.476665,3.92045 3.496283,5.33638 5.285246,3.93021 1.788964,-1.40617 2.207891,-5.0369 0.318213,-6.70844"
         id="path2821"
         inkscape:connector-curvature="0"
         sodipodi:nodetypes="czc" />
      <path
         inkscape:connector-curvature="0"
         style="opacity:1;fill:#fdcfc1;fill-opacity:1;stroke:none;stroke-width:2.30900931;stroke-linecap:round;stroke-miterlimit:4;stroke-dasharray:none;stroke-opacity:1"
         d="m 104.5594,236.18319 c -8.561575,0.0247 -17.118998,3.28282 -24.779484,9.77122 -1.47339,1.24801 -2.433591,3.30099 -3.794405,6.6987 l 57.710359,0.38183 c -1.38505,-3.47732 -2.82981,-5.96396 -4.33078,-7.22372 -7.67803,-6.4442 -16.24411,-9.65272 -24.80569,-9.62803 z"
         id="path2823"
         sodipodi:nodetypes="cccccc" />
      <path
         id="path3017"
         transform="scale(0.26458333)"
         d="m 310.47852,933.77539 c -0.47397,-0.004 -0.95709,0.005 -1.45313,0.0273 -8.74687,0.41129 -16.40078,6.01016 -19.43945,14.22266 -16.4493,42.63505 -18.45126,75.70405 -18.23242,105.92195 a 392.81053,255.56858 0 0 0 17.83203,3.8515 392.81053,255.56858 0 0 0 14.01367,2.3262 392.81053,255.56858 0 0 0 13.57812,1.9805 c -8.85079,-14.0767 3.65018,-29.8516 6.59375,-100.10359 5.74103,-14.28612 1.79285,-28.05954 -12.89257,-28.22656 z"
         style="opacity:1;fill:#fdcfc1;fill-opacity:1;stroke:none;stroke-width:9.20919228;stroke-linecap:round;stroke-miterlimit:4;stroke-dasharray:none;stroke-opacity:1"
         inkscape:connector-curvature="0" />
      <path
         id="path3023"
         transform="scale(0.26458333)"
         d="m 483.22852,934.40039 v 0.002 c -0.5079,-0.0151 -1.01852,-0.015 -1.53125,0.004 l -0.002,0.002 c -16.54431,0.66153 -26.35132,18.78646 -17.85547,32.99805 14.01744,24.21192 16.35107,41.76326 14.27539,55.36916 -2.07567,13.6058 6.5469,25.3705 -2.92187,34.8144 -1.7335,1.729 -3.54368,3.8263 -5.39258,5.8731 a 392.81053,255.56858 0 0 0 0.54688,-0.055 392.81053,255.56858 0 0 0 18.3789,-2.6836 392.81053,255.56858 0 0 0 19.88086,-3.3066 392.81053,255.56858 0 0 0 15.50781,-3.3516 c 1.37669,-36.949 -7.68201,-82.30022 -22.51171,-108.52149 -3.76094,-6.71433 -10.75654,-10.915 -18.375,-11.14453 z"
         style="opacity:1;fill:#fdcfc1;fill-opacity:1;stroke:none;stroke-width:9.20919228;stroke-linecap:round;stroke-miterlimit:4;stroke-dasharray:none;stroke-opacity:1"
         inkscape:connector-curvature="0" />
      <path
         id="path3026"
         transform="scale(0.26458333)"
         d="m 334.46094,906.88672 c -38.88154,16.05498 -41.78135,22.72096 -48.66602,44.22266 -2.74383,8.56875 29.21141,19.26525 28.60938,30.0332 -1.33438,23.85102 0.18573,51.00422 -1.56836,80.38862 a 392.81053,255.56858 0 0 0 13.97265,2.0391 392.81053,255.56858 0 0 0 16.27539,1.6016 392.81053,255.56858 0 0 0 22.03711,1.7363 392.81053,255.56858 0 0 0 32.67579,1.0625 392.81053,255.56858 0 0 0 33.5957,-1.0977 392.81053,255.56858 0 0 0 19.01953,-1.5019 392.81053,255.56858 0 0 0 19.93555,-1.9629 392.81053,255.56858 0 0 0 12.51562,-1.8281 c -0.89052,-32.0654 2.42509,-61.65782 0.64453,-87.00783 -0.74521,-10.60929 25.81458,-16.13242 22.92774,-24.29688 -9.60794,-23.28544 -31.58756,-34.55197 -43.24219,-40.13672 -12.94091,11.30192 -45.40122,14.27833 -63.23242,22.36524 -16.47768,-8.12055 -45.52995,-6.12379 -65.5,-25.61719 z"
         style="opacity:1;fill:#de8787;fill-opacity:1;stroke:none;stroke-width:9.20919228;stroke-linecap:round;stroke-miterlimit:4;stroke-dasharray:none;stroke-opacity:1"
         inkscape:connector-curvature="0" />
      <circle
         style="opacity:1;fill:#efb2b2;fill-opacity:1;stroke:#efb2b2;stroke-width:5.74399996;stroke-linecap:round;stroke-miterlimit:4;stroke-dasharray:none;stroke-opacity:1;filter:url(#filter2330)"
         id="circle2831"
         cx="-913.20941"
         cy="612.78021"
         r="8.598958"
         transform="matrix(0.87305943,0,0,0.87305943,870.63387,-332.29991)" />
      <circle
         transform="matrix(0.87305943,0,0,0.87305943,932.15466,-332.29991)"
         r="8.598958"
         cy="612.78021"
         cx="-913.20941"
         id="circle2833"
         style="opacity:1;fill:#f2b9b5;fill-opacity:1;stroke:#f2b9b5;stroke-width:5.74399996;stroke-linecap:round;stroke-miterlimit:4;stroke-dasharray:none;stroke-opacity:1;filter:url(#filter2330)" />
    </g>
  </g>
</svg>
